{"title":"Scream.4.2011.Cam.DivX-NoGRP.Crazy-Torrent","uid":6324159,"size":1360204739,"categoryP":"video","categoryS":"movies","magnet":"?xt=urn:btih:7642f2c80dfb5a438a02a8c45e95a1f445ada34a&amp;dn=Scream.4.2011.Cam.DivX-NoGRP.Crazy-Torrent&amp;tr=udp%3A%2F%2Ftracker.openbittorrent.com%3A80&amp;tr=udp%3A%2F%2Fopen.demonii.com%3A1337&amp;tr=udp%3A%2F%2Ftracker.coppersurfer.tk%3A6969&amp;tr=udp%3A%2F%2Fexodus.desync.com%3A6969","seeders":0,"leechers":1,"uploader":"crazy-torrent","files":2,"time":1303051373,"description":" &lt;a href=&quot;http://www.scenespeeds.com/&quot; rel=&quot;nofollow&quot; target=&quot;_NEW&quot;&gt;http://www.scenespeeds.com/&lt;/a&gt;\n\n\n NOTES: Piss poor quality. get if you're desperate otherwise please dont complain as you have been warned. Also, dont forward through the movie or it will freeze. watch without forwarding. A TS by Scene will be out shortly.\n &lt;a href=&quot;\nhttp://www.imdb.com/title/tt1262416/&quot; rel=&quot;nofollow&quot; target=&quot;_NEW&quot;&gt;\nhttp://www.imdb.com/title/tt1262416/&lt;/a&gt;\n\n\n\nGeneral\nComplete name : Scream.4.2011.Cam.DivX-NoGRP.divx\nFormat : AVI\nFormat/Info : Audio Video Interleave\nFile size : 1.27 GiB\nDuration : 1h 43mn\nOverall bit rate : 1 761 Kbps\n\nVideo\nID : 0\nFormat : MPEG-4 Visual\nFormat settings, BVOP : Yes\nFormat settings, QPel : No\nFormat settings, GMC : No warppoints\nFormat settings, Matrix : Default (H.263)\nMuxing mode : Packed bitstream\nCodec ID : DX50\nCodec ID/Hint : DivX 5\nDuration : 1h 43mn\nBit rate : 1 621 Kbps\nWidth : 720 pixels\nHeight : 404 pixels\nDisplay aspect ratio : 16:9\nFrame rate : 30.000 fps\nResolution : 8 bits\nColorimetry : 4:2:0\nScan type : Progressive\nBits/(Pixel*Frame) : 0.186\nStream size : 1.17 GiB (92%)\nTitle : Video\nWriting library : DivX 3330\n\nAudio\nID : 1\nFormat : MPEG Audio\nFormat version : Version 1\nFormat profile : Layer 3\nMode : Joint stereo\nCodec ID : 55\nCodec ID/Hint : MP3\nDuration : 1h 43mn\nBit rate mode : Constant\nBit rate : 128 Kbps\nChannel(s) : 2 channels\nSampling rate : 44.1 KHz\nStream size : 94.3 MiB (7%)\nAlignment : Split accross interleaves\nInterleave, duration : 33 ms (1.00 video frame)\nInterleave, preload duration : 500 ms\nTitle : Audio\n\n &lt;a href=&quot;\nhttp://www.scenespeeds.com/&quot; rel=&quot;nofollow&quot; target=&quot;_NEW&quot;&gt;\nhttp://www.scenespeeds.com/&lt;/a&gt;\n &lt;a href=&quot;\nhttp://shareimage.ro/images/yh6af5zqe749v8h1t08.jpg&quot; rel=&quot;nofollow&quot; target=&quot;_NEW&quot;&gt;\nhttp://shareimage.ro/images/yh6af5zqe749v8h1t08.jpg&lt;/a&gt; &lt;a href=&quot;\nhttp://shareimage.ro/images/jv381nunaa2k99ec2e9.jpg&quot; rel=&quot;nofollow&quot; target=&quot;_NEW&quot;&gt;\nhttp://shareimage.ro/images/jv381nunaa2k99ec2e9.jpg&lt;/a&gt; &lt;a href=&quot;\nhttp://shareimage.ro/images/5xg8xowan8uv7567r4fn.jpg&quot; rel=&quot;nofollow&quot; target=&quot;_NEW&quot;&gt;\nhttp://shareimage.ro/images/5xg8xowan8uv7567r4fn.jpg&lt;/a&gt;\n\n","torrent":{"xt":"urn:btih:7642f2c80dfb5a438a02a8c45e95a1f445ada34a","amp;dn":"Scream.4.2011.Cam.DivX-NoGRP.Crazy-Torrent","amp;tr":["udp%3A%2F%2Ftracker.openbittorrent.com%3A80","udp%3A%2F%2Fopen.demonii.com%3A1337","udp%3A%2F%2Ftracker.coppersurfer.tk%3A6969","udp%3A%2F%2Fexodus.desync.com%3A6969"],"infoHash":"7642f2c80dfb5a438a02a8c45e95a1f445ada34a","infoHashBuffer":{"type":"Buffer","data":[118,66,242,200,13,251,90,67,138,2,168,196,94,149,161,244,69,173,163,74]},"announce":[],"urlList":[]}}